
<svg xmlns="http://www.w3.org/2000/svg" xmlns:xlink="http://www.w3.org/1999/xlink" version="1.1" xml:space="preserve" class="u-svg-content" viewBox="0 0 512 512" x="0px" y="0px" id="svg-33e7" style="enable-background:new 0 0 512 512;"><g><g><path d="M437.02,74.98C388.667,26.629,324.38,0,256,0S123.333,26.629,74.98,74.98C26.629,123.333,0,187.62,0,256    s26.629,132.667,74.98,181.02C123.333,485.371,187.62,512,256,512s132.667-26.629,181.02-74.98    C485.371,388.667,512,324.38,512,256S485.371,123.333,437.02,74.98z M426.413,426.413C380.894,471.932,320.374,497,256,497    s-124.894-25.068-170.413-70.587C40.068,380.894,15,320.374,15,256S40.068,131.106,85.587,85.587    C131.106,40.068,191.626,15,256,15s124.894,25.068,170.413,70.587C471.932,131.106,497,191.626,497,256    S471.932,380.894,426.413,426.413z"></path>
  </g>
  </g><g><g><path d="M418.727,167.493c-16.096-0.552-31.852-2.29-45.753-3.824c-36.434-4.019-61.843-4.003-75.917,8.474    c-1.432,1.27-2.765,2.625-4.024,4.051l-0.436-0.759c-2.065-3.591-6.651-4.828-10.24-2.763c-3.591,2.065-4.828,6.649-2.764,10.24    l4.363,7.588c-4.07,8.839-6.984,19.479-9.724,32.105c-7.752,35.724-19.468,89.71-89.191,95.391    c-4.128,0.336-7.203,3.955-6.866,8.084c0.319,3.921,3.601,6.892,7.467,6.892c0.204,0,0.41-0.009,0.617-0.025    c35.052-2.856,61.578-17.209,78.839-42.66c14.405-21.239,19.831-46.244,23.793-64.5c1.521-7.007,3.068-13.269,4.821-18.821    c1.425,1.448,3.362,2.241,5.346,2.241c1.268,0,2.554-0.322,3.731-1c3.591-2.065,4.828-6.649,2.764-10.24l-4.419-7.685    c1.734-2.647,3.668-4.958,5.875-6.916c10.476-9.286,37.105-7.788,64.32-4.786c14.165,1.562,30.22,3.334,46.883,3.905    c4.122,0.133,7.611-3.098,7.753-7.238C426.107,171.106,422.866,167.636,418.727,167.493z"></path>
  </g>
  </g><g><g><path d="M159.185,326.206c-0.876-4.05-4.868-6.621-8.916-5.746c-5.311,1.148-10.249,2.807-14.676,4.93    c-3.735,1.791-5.312,6.271-3.521,10.006c1.289,2.689,3.972,4.259,6.768,4.259c1.087,0,2.191-0.237,3.237-0.738    c3.373-1.617,7.196-2.894,11.363-3.795C157.488,334.246,160.061,330.254,159.185,326.206z"></path>
  </g>
  </g><g><g><path d="M325.354,95.753c-0.294-4.132-3.886-7.248-8.014-6.948c-28.104,2.001-50.745,10.937-69.215,27.316    c-18.09,16.044-28.15,35.136-34.642,53.993c-4.462-3.824-10.252-6.14-16.576-6.14c-1.209,0-2.396,0.092-3.56,0.255    c7.392-21.585,19.28-44.762,40.811-63.857c3.703-3.283,7.586-6.355,11.541-9.13c3.391-2.379,4.211-7.056,1.833-10.447    c-2.378-3.392-7.057-4.211-10.447-1.833c-4.419,3.1-8.752,6.528-12.879,10.187c-39.226,34.787-49.116,80.343-55.669,110.524    c-0.473,2.19-1.384,6.406-2.389,10.664c-45.164,0.437-72.608,10.423-85.181,16.509c-3.729,1.804-5.288,6.29-3.483,10.018    c1.295,2.675,3.971,4.234,6.756,4.234c1.096,0,2.209-0.241,3.262-0.751c27.779-13.445,64.775-15.178,84.308-15.014    c0.117,0.002,0.263,0.003,0.36,0.001c3.354-0.067,6.256-2.354,7.105-5.599c0.82-3.13,1.648-6.65,2.363-9.809    c4.261,3.196,9.545,5.097,15.27,5.097c1.812,0,3.579-0.197,5.284-0.558c-2.983,13.228-5.656,22.872-9.328,27.22    c-3.095,3.664-8.246,4.807-21.228,4.698c-31.624-0.267-67.471,9.78-89.262,24.99c-3.396,2.371-4.228,7.046-1.857,10.443    c1.458,2.089,3.788,3.208,6.156,3.208c1.482,0,2.979-0.438,4.287-1.351c19.14-13.36,52.248-22.532,80.551-22.291    c13.228,0.114,24.831-0.565,32.813-10.017c6.572-7.783,9.713-20.632,14.106-40.871c5.744-26.474,12.892-59.42,39.648-83.15    c16.128-14.303,35.298-21.794,60.328-23.577C322.538,103.473,325.649,99.885,325.354,95.753z M196.907,200.025    c-5.803,0-10.525-4.721-10.525-10.525s4.722-10.525,10.525-10.525c5.803,0,10.525,4.722,10.525,10.525    S202.71,200.025,196.907,200.025z"></path>
  </g>
  </g><g><g><path d="M157.626,135.214c-3.873-1.474-8.205,0.47-9.678,4.341c-5.204,13.671-8.665,26.517-11.149,36.933    c-5.467,0.789-10.824,1.788-15.922,2.765c-2.5,0.479-5.052,1.033-7.584,1.648c-4.023,0.976-6.494,5.031-5.518,9.056    c0.833,3.431,3.901,5.733,7.283,5.733c0.585,0,1.181-0.069,1.775-0.213c2.296-0.557,4.607-1.06,6.868-1.493    c6.714-1.287,13.301-2.505,20.074-3.278c3.164-0.36,5.755-2.68,6.462-5.785c2.436-10.689,5.971-24.9,11.73-40.029    C163.441,141.021,161.497,136.688,157.626,135.214z"></path>
  </g>
  </g><g><g><path d="M183.749,90.337c-3.357-2.428-8.045-1.674-10.472,1.683c-3.548,4.906-6.927,10.09-10.042,15.408    c-2.094,3.573-0.894,8.168,2.68,10.262c1.191,0.698,2.496,1.03,3.784,1.03c2.575,0,5.083-1.328,6.478-3.71    c2.874-4.905,5.987-9.683,9.254-14.2C187.858,97.454,187.105,92.765,183.749,90.337z"></path>
  </g>
  </g><g><g><path d="M411.812,239.382c-17.453-0.792-32.845-2.502-44.083-3.751l-1.24-0.138c0.663-2.269,1.025-4.665,1.025-7.145    c0-5.344-1.654-10.307-4.472-14.412c1.484,0.162,2.942,0.322,4.334,0.476c12.109,1.336,25.834,2.85,40.445,3.673    c4.125,0.239,7.677-2.93,7.91-7.066c0.233-4.135-2.931-7.677-7.066-7.91c-14.209-0.801-27.722-2.292-39.643-3.607    c-8.62-0.952-20.426-2.256-30.188-2.793c-12.636-0.694-23.792,7.853-26.501,20.324l-2.872,13.217    c-4.11,18.944-10.99,50.651-30.804,77.096c-23.464,31.315-59.468,47.188-107.036,47.188c-0.301,0-0.609,0-0.911-0.002    c-15.312-0.062-36.878,2.346-52.455,14.202c-3.296,2.509-3.934,7.214-1.425,10.51c1.476,1.939,3.711,2.958,5.973,2.958    c1.583,0,3.18-0.499,4.537-1.532c12.87-9.796,32.646-11.186,43.307-11.138c34.269,0.147,63.241-7.288,86.639-22.146    c1.801,7.449,6.875,13.633,13.611,16.936c-25.962,17.661-57.684,26.525-94.75,26.364c-5.662-0.022-11.125,0.417-16.176,1.302    c-4.08,0.715-6.808,4.602-6.092,8.682c0.638,3.643,3.804,6.207,7.378,6.207c0.43,0,0.866-0.037,1.304-0.114    c4.081-0.715,8.517-1.078,13.191-1.078c0.419,0,0.838,0.002,1.257,0.002c56.099,0,101.076-19.193,133.69-57.052    c21.022-24.404,36.322-55.879,45.473-93.552c0.761-3.132,3.785-5.225,7.033-4.864l2.868,0.318    c11.444,1.271,27.118,3.013,45.061,3.827c4.114,0.194,7.644-3.014,7.832-7.152S415.951,239.57,411.812,239.382z M282.092,351.915    c-5.804,0-10.525-4.722-10.525-10.525s4.722-10.525,10.525-10.525c5.803,0,10.525,4.722,10.525,10.525    S287.896,351.915,282.092,351.915z M305.494,331.209c-2.894-6.627-8.522-11.794-15.452-14.071    c0.204-0.268,0.417-0.527,0.619-0.797c18.337-24.473,26.418-52.239,31.122-72.422c4.484,5.806,11.408,9.632,19.223,9.93    C333.33,284.337,321.408,310.303,305.494,331.209z M341.989,238.873c-5.803,0-10.525-4.722-10.525-10.525    c0-5.803,4.722-10.525,10.525-10.525c5.804,0,10.525,4.722,10.525,10.525C352.514,234.151,347.792,238.873,341.989,238.873z"></path>
  </g>
  </g><g><g><path d="M409.869,275.35c-6.877-0.309-13.783-0.758-21.111-1.373c-8.86-0.739-17.113,4.732-20.061,13.314    c-1.845,5.371-4.013,10.906-6.493,16.53l-0.957-0.957c-2.929-2.929-7.678-2.929-10.606,0c-2.929,2.929-2.929,7.678,0,10.606    l4.654,4.654c-23.042,43.836-64.483,89.322-123.134,103.39c-4.028,0.966-6.51,5.015-5.544,9.042    c0.825,3.44,3.898,5.753,7.287,5.752c0.579,0,1.168-0.068,1.755-0.208c33.997-8.154,66.181-27.264,93.073-55.265    c14.529-15.127,27.346-32.774,37.671-51.603l0.01,0.01c1.464,1.464,3.384,2.197,5.303,2.197s3.839-0.732,5.303-2.197    c2.929-2.929,2.929-7.678,0-10.606l-3.472-3.472c3.537-7.562,6.674-15.251,9.335-22.999c0.725-2.109,2.575-3.415,4.623-3.241    c7.522,0.631,14.618,1.092,21.691,1.409c4.127,0.18,7.643-3.018,7.829-7.156C417.21,279.04,414.007,275.535,409.869,275.35z"></path>
  </g>
  </g><g><g><path d="M408.245,311.366c-1.555-0.07-3.089-0.147-4.605-0.23c-3.146-0.171-6.056,1.637-7.297,4.527    c-10.391,24.173-24.932,47.661-42.052,67.926c-2.673,3.164-2.275,7.896,0.889,10.569c1.409,1.19,3.127,1.771,4.836,1.771    c2.132,0,4.25-0.904,5.733-2.66c16.935-20.046,31.48-43.085,42.269-66.912c3.943-0.053,7.208-3.175,7.386-7.165    C415.588,315.055,412.383,311.551,408.245,311.366z"></path>
  </g>
  </g><g><g><path d="M390.297,129.275c-4.504-0.462-8.966-0.954-13.375-1.44c-40.102-4.421-77.979-8.597-104.876,15.257    c-21.605,19.161-27.682,47.163-33.044,71.867c-7.31,33.68-13.254,61.072-51.511,66.498c-0.557-2.141-2.046-4.018-4.227-4.98    c-3.791-1.673-8.218,0.045-9.889,3.835l-0.938,2.126c-0.363,0-0.734-0.002-1.1-0.005c-41.86-0.346-65.113,17.093-75.254,27.52    c-2.888,2.969-2.822,7.718,0.147,10.606c1.458,1.417,3.344,2.123,5.229,2.123c1.954,0,3.907-0.759,5.377-2.271    c17.029-17.508,40.546-22.299,58.957-22.912l-0.868,1.966c-1.672,3.79,0.045,8.218,3.834,9.89c0.985,0.435,2.012,0.64,3.023,0.64    c2.881,0,5.628-1.669,6.866-4.475l3.729-8.452c23.229-1.753,40.13-9.916,51.429-24.804c11.354-14.961,15.675-34.87,19.854-54.123    c5.113-23.557,10.399-47.917,28.338-63.826c21.916-19.437,54.988-15.791,93.279-11.57c4.447,0.49,8.946,0.986,13.488,1.452    c4.115,0.422,7.804-2.574,8.227-6.695C397.415,133.382,394.417,129.698,390.297,129.275z"></path>
  </g>
  </g><g><g><path d="M291.616,67.833c-1.138-3.983-5.289-6.287-9.272-5.151l-3.943,1.127c-3.983,1.138-6.289,5.289-5.151,9.272    c0.942,3.295,3.945,5.442,7.208,5.442c0.682,0,1.376-0.094,2.064-0.291l3.943-1.127C290.448,75.967,292.754,71.816,291.616,67.833    z"></path>
  </g>
  </g><g><g><path d="M330.714,408.078c-3.929-1.311-8.177,0.813-9.487,4.743l-3.38,10.139c-1.31,3.93,0.814,8.177,4.744,9.487    c0.787,0.262,1.586,0.387,2.373,0.387c3.14,0,6.066-1.987,7.114-5.13l3.38-10.14C336.767,413.635,334.644,409.388,330.714,408.078    z"></path>
  </g>
  </g><g><g><path d="M105.841,148.015h-2.816c-4.142,0-7.5,3.358-7.5,7.5c0,4.142,3.358,7.5,7.5,7.5h2.816c4.142,0,7.5-3.357,7.5-7.5    C113.341,151.373,109.983,148.015,105.841,148.015z"></path>
  </g>
  </g>
</svg>